<svg version="1.1" id="Layer_1" xmlns="http://www.w3.org/2000/svg" xmlns:xlink="http://www.w3.org/1999/xlink" x="0px" y="0px"
	 width="100%" viewBox="0 0 550 319" enable-background="new 0 0 550 319" xml:space="preserve">
<path fill="#FEFEFE" opacity="1.000000" stroke="none" 
	d="
M343.000000,320.000000 
	C228.666702,320.000000 114.833405,320.000000 1.000076,320.000000 
	C1.000051,213.666733 1.000051,107.333466 1.000026,1.000148 
	C184.333206,1.000098 367.666412,1.000098 550.999756,1.000049 
	C550.999817,107.333183 550.999817,213.666367 550.999878,319.999756 
	C481.833344,320.000000 412.666656,320.000000 343.000000,320.000000 
M473.731781,132.774033 
	C473.731781,132.774033 473.336853,132.509857 473.318756,131.683746 
	C473.479370,130.886398 473.639984,130.089050 473.838562,129.103149 
	C468.211304,129.103149 462.794830,129.103149 457.338715,129.103149 
	C453.751770,145.817078 450.221283,162.267883 446.591003,179.183762 
	C452.393951,179.183762 457.506378,179.183762 463.020233,179.183762 
	C463.629517,176.651474 464.334961,173.942841 464.929016,171.209991 
	C466.938995,161.963806 468.575195,152.615662 471.115906,143.519196 
	C471.802673,141.060165 475.183228,139.353500 477.327332,137.301498 
	C478.467133,138.618073 479.439667,140.153793 480.794861,141.188248 
	C482.092896,142.179123 483.801636,143.263153 485.306488,143.230469 
	C489.396301,143.141647 492.332306,138.970200 491.690125,134.787369 
	C490.976929,130.141617 487.555603,127.263809 483.340179,128.530502 
	C480.092041,129.506531 477.159210,131.531769 473.731781,132.774033 
M537.033020,164.544403 
	C539.494629,152.518280 541.956299,140.492172 544.480591,128.160126 
	C538.908325,128.160126 533.926147,128.311218 528.959290,128.101440 
	C526.140564,127.982399 525.369507,129.136703 524.880127,131.734802 
	C523.094849,141.212296 521.199402,150.680054 518.910767,160.045273 
	C518.194397,162.976868 516.370728,165.771439 514.523621,168.230453 
	C513.735168,169.280121 511.047821,170.151001 510.189209,169.599487 
	C508.988495,168.828247 508.107635,166.638962 508.138519,165.077103 
	C508.190216,162.465088 509.072052,159.869736 509.602539,157.266968 
	C511.519958,147.860138 513.436523,138.453140 515.464905,128.498856 
	C510.325531,128.498856 505.842377,128.256226 501.417847,128.658539 
	C500.215240,128.767883 498.525513,130.660004 498.195038,132.011566 
	C496.577332,138.628311 495.337250,145.337646 493.975708,152.016724 
	C493.078644,156.417206 492.005920,160.793060 491.354645,165.230270 
	C489.700958,176.496323 497.597900,183.159760 508.477264,179.697220 
	C510.673218,178.998337 512.674622,177.688095 515.270813,176.411285 
	C514.908752,178.763214 514.824158,180.606171 514.329773,182.331665 
	C505.563812,212.925140 491.562531,240.899094 471.122131,265.320099 
	C452.402527,287.685242 427.992432,295.732513 399.222534,292.299286 
	C377.330902,289.686829 357.922485,280.671906 341.340179,267.228668 
	C311.882782,243.347672 283.724213,217.861694 255.113525,192.942368 
	C250.965637,189.329636 251.060013,185.676086 255.568481,181.386139 
	C272.036163,165.716599 278.513824,145.912674 279.430176,123.928543 
	C280.107361,107.682327 273.898285,90.204445 254.412552,84.882652 
	C254.043152,84.781761 253.789719,84.256279 253.281708,83.715500 
	C255.101334,82.300026 256.815674,81.027184 258.464294,79.674240 
	C270.045532,70.170021 275.921021,58.019142 274.918030,42.953785 
	C273.966156,28.656309 262.897797,16.149282 245.623566,12.148655 
	C211.128433,4.159747 180.742355,13.200858 154.984543,37.182560 
	C145.510391,46.003414 139.575989,56.983025 138.766647,70.458046 
	C137.797699,86.590637 147.528000,94.452309 163.694534,93.398796 
	C160.266434,83.455070 159.911087,73.171333 162.532516,62.518093 
	C170.889206,28.557291 207.878296,15.432993 232.838669,22.121241 
	C244.918015,25.357960 252.160095,35.701523 250.811676,48.029114 
	C249.246689,62.336411 242.236588,73.490517 229.522247,80.446114 
	C225.657425,82.560425 220.979294,83.188034 215.735168,84.781792 
	C219.586792,66.247978 223.113632,49.277054 226.828384,31.401867 
	C215.456726,32.985260 205.130707,34.554081 194.763931,35.777767 
	C192.048645,36.098274 191.241318,37.156647 190.725113,39.653118 
	C187.257996,56.420856 183.617996,73.152885 180.025543,89.894661 
	C177.805420,100.240837 175.570297,110.583809 173.230438,121.445671 
	C165.033905,115.409561 157.364929,109.877968 149.819321,104.182938 
	C129.189392,88.612572 105.968353,82.427727 80.375671,85.038513 
	C56.901070,87.433235 37.943329,97.592903 24.701857,117.649071 
	C11.216473,138.074677 5.006833,160.353149 6.929654,184.806076 
	C7.908051,197.248566 8.717547,209.773376 14.730821,221.105682 
	C44.774723,277.724884 117.828217,298.900269 171.576401,264.249512 
	C195.229584,249.000565 214.984695,229.664383 233.043823,208.359070 
	C238.117722,202.373108 240.410873,202.334824 246.146118,207.517746 
	C272.453674,231.291763 298.471680,255.400635 325.232849,278.653656 
	C346.720978,297.324890 371.153656,310.286896 400.345856,312.415955 
	C431.074341,314.657013 457.863831,306.498474 479.627533,283.844696 
	C491.264862,271.731445 500.577057,258.042816 508.463043,243.316681 
	C521.649475,218.692673 530.308350,192.404099 537.033020,164.544403 
M359.526123,88.824852 
	C357.098083,88.824852 354.670013,88.824852 352.337555,88.824852 
	C347.978638,117.944344 343.731476,146.317184 339.411682,175.175140 
	C342.667969,175.175140 345.301056,175.175140 347.934174,175.175140 
	C350.559326,175.175140 353.184479,175.175140 355.742645,175.175140 
	C356.446411,171.206100 357.393921,167.787933 357.580017,164.328796 
	C357.816437,159.934357 359.743347,158.424271 363.966980,159.420471 
	C364.929565,162.544449 365.668732,165.800262 366.922058,168.844391 
	C370.216522,176.846146 382.540344,179.313477 388.809265,173.294998 
	C389.432648,172.696548 389.912994,171.652115 389.949799,170.792847 
	C390.084320,167.649628 390.003021,164.497177 390.003021,161.361298 
	C389.564636,161.296112 389.201263,161.126999 388.923615,161.218369 
	C385.617920,162.306076 383.138794,161.526810 381.413910,158.324036 
	C379.649353,155.047684 381.762512,153.701797 383.687469,151.426376 
	C386.588745,147.996994 389.377686,143.874771 390.437164,139.605957 
	C392.854675,129.865189 386.699341,123.007370 376.752075,124.162674 
	C372.174469,124.694328 367.797424,126.952789 363.403564,128.403763 
	C365.136475,115.666824 366.930725,102.478951 368.788422,88.824844 
	C365.751556,88.824844 363.115997,88.824844 359.526123,88.824852 
M332.842957,135.516556 
	C333.097900,133.631287 333.352814,131.746017 333.661987,129.459686 
	C331.543121,129.573303 329.910400,129.672516 328.276550,129.746201 
	C324.189056,129.930511 319.575317,131.421951 316.109100,130.040131 
	C304.419952,125.380188 290.924530,130.412659 287.091675,142.355591 
	C285.075714,148.637253 283.923065,155.294617 283.215942,161.872131 
	C282.373016,169.712814 286.910522,174.766861 294.543976,176.304810 
	C301.825287,177.771805 307.624023,175.495712 312.392365,170.042023 
	C316.701813,176.322113 323.187531,178.296997 330.158508,175.546249 
	C335.130524,173.584290 335.927765,171.165802 334.504883,162.361206 
	C328.788269,163.479187 328.115173,162.970596 328.996399,157.467972 
	C330.126831,150.409271 331.473846,143.385254 332.842957,135.516556 
M433.801086,129.408096 
	C431.325226,129.103851 428.857361,128.666168 426.372192,128.517715 
	C413.265045,127.734848 403.053162,134.211563 400.215149,145.377625 
	C398.907501,150.522522 398.028809,155.800110 397.317108,161.066376 
	C396.557190,166.689148 400.427399,173.070740 405.953461,174.872665 
	C414.456879,177.645432 423.080963,177.482498 431.260345,173.688248 
	C437.192688,170.936325 440.470245,165.851715 441.964233,158.712173 
	C435.543762,160.615585 428.610535,155.537018 423.164337,162.332733 
	C422.314972,163.392578 418.248260,162.893509 416.440765,161.818359 
	C415.171661,161.063477 414.433228,157.865906 414.942352,156.217712 
	C415.281311,155.120209 418.221313,154.314789 420.020325,154.267899 
	C427.931030,154.061691 435.850159,154.178909 443.690125,154.178909 
	C446.988098,139.026352 444.795013,133.262802 433.801086,129.408096 
M443.981171,40.455765 
	C443.208252,38.084858 442.650330,35.611099 441.583435,33.380833 
	C440.922150,31.998526 439.488129,30.985912 438.400970,29.807337 
	C437.257507,30.913801 435.603790,31.815525 435.062836,33.163742 
	C433.164215,37.895657 431.648529,42.781231 429.690186,48.472546 
	C427.454132,41.712021 425.545044,35.940144 423.595764,30.046604 
	C422.060760,30.046604 420.637543,30.046604 418.809479,30.046604 
	C421.200989,37.278095 423.734375,44.108273 425.662506,51.105232 
	C426.687134,54.823433 428.560303,55.512470 431.961853,54.473873 
	C433.887604,48.994225 435.848511,43.414577 438.223602,36.656281 
	C440.330444,42.817951 441.896912,47.801006 443.805481,52.649380 
	C444.197235,53.644547 445.827332,54.612198 446.963379,54.711105 
	C447.898499,54.792519 449.542419,53.776207 449.852112,52.889935 
	C452.461609,45.422241 454.836212,37.872471 457.297760,30.297329 
	C453.976776,29.031876 452.752502,30.333052 451.932678,33.052273 
	C450.458771,37.941002 448.673615,42.735889 446.712524,48.463737 
	C445.601288,45.286579 444.888885,43.249756 443.981171,40.455765 
M336.714508,35.476784 
	C336.213196,36.519798 335.546478,37.516399 335.238556,38.613689 
	C333.730164,43.989586 335.798187,49.707619 340.235046,52.705387 
	C345.231628,56.081337 352.422394,55.815353 357.048431,52.083473 
	C361.307648,48.647499 362.824158,43.008297 360.926147,37.663914 
	C357.582855,28.249952 344.799042,26.717499 336.714508,35.476784 
M540.812256,54.873348 
	C541.469238,53.798561 542.126221,52.723770 543.353882,50.715466 
	C537.508362,50.715466 533.117126,50.715466 528.814453,50.715466 
	C528.814453,48.293648 528.814453,46.355114 528.814453,43.959763 
	C532.783569,43.959763 536.542969,43.959763 541.533325,43.959763 
	C538.159485,37.410496 532.410828,41.857544 528.930603,39.519169 
	C528.930603,37.708443 528.930603,35.822517 528.930603,33.596222 
	C533.378906,33.596222 537.499939,33.596222 541.805176,33.596222 
	C541.805176,32.153950 541.805176,31.057894 541.805176,30.125557 
	C535.674072,30.125557 529.766907,30.125557 524.129028,30.125557 
	C524.129028,38.548637 524.129028,46.618374 524.129028,54.885174 
	C529.633484,54.885174 534.785400,54.885174 540.812256,54.873348 
M505.680054,47.969631 
	C506.761688,49.436996 507.628845,51.157379 508.982025,52.304409 
	C510.498962,53.590229 512.455627,54.357353 514.220947,55.350163 
	C514.492249,54.912773 514.763550,54.475384 515.034790,54.037994 
	C513.499695,51.711288 511.964630,49.384579 510.177765,46.676285 
	C514.731079,44.269627 516.530945,40.156994 514.599487,35.905407 
	C513.443848,33.361488 510.131348,30.871832 507.348694,30.212212 
	C503.301666,29.252872 498.858124,29.966059 494.412048,29.966059 
	C494.412048,38.363434 494.412048,46.420532 494.412048,54.826797 
	C496.078247,54.740719 497.446289,54.670044 498.864166,54.596794 
	C498.994415,52.064823 499.103638,49.941410 499.220306,47.673523 
	C501.256592,47.673523 503.063599,47.673523 505.680054,47.969631 
M476.236877,49.028748 
	C478.709229,48.768658 480.852295,48.996719 481.557129,52.005436 
	C482.325439,55.285378 484.443207,55.291191 487.440704,54.309101 
	C483.929169,46.537117 480.667847,39.117821 477.217712,31.787384 
	C475.939514,29.071547 472.292511,28.794821 471.078766,31.362597 
	C467.493927,38.946350 464.191498,46.663582 460.303345,55.395996 
	C462.829620,54.672508 465.418701,54.499786 465.571075,53.797989 
	C466.864716,47.840141 471.372162,49.086361 476.236877,49.028748 
M309.208588,38.904221 
	C311.104340,43.585060 315.864868,43.220592 319.511810,44.883221 
	C321.103790,45.609009 322.334503,47.127296 323.729279,48.285694 
	C321.991211,49.230305 320.262756,50.926113 318.512878,50.948475 
	C315.686401,50.984592 312.845825,49.919559 308.514374,49.002762 
	C309.469879,51.006363 309.955353,53.240540 310.664886,53.314140 
	C315.149078,53.779289 319.782349,54.354492 324.150879,53.616844 
	C325.870819,53.326420 328.139923,49.750065 328.137390,47.672485 
	C328.134979,45.673248 325.880310,43.160271 323.954987,41.824986 
	C322.026245,40.487331 319.159698,40.586521 316.941040,39.549324 
	C315.690186,38.964569 314.917145,37.357761 313.928864,36.211372 
	C315.127747,35.255180 316.306824,33.531181 317.529602,33.499599 
	C320.232880,33.429783 322.958160,34.211380 326.521881,34.781151 
	C326.349609,33.542934 326.267975,31.115400 325.969574,31.088457 
	C321.797394,30.711746 317.488159,30.034853 313.434326,30.728632 
	C310.060272,31.306076 308.647461,34.544102 309.208588,38.904221 
M369.972351,31.636292 
	C369.972351,39.265450 369.972351,46.894608 369.972351,54.874069 
	C371.832214,54.749924 373.204895,54.658298 374.936005,54.542744 
	C374.936005,51.252666 374.936005,48.326977 374.936005,44.978355 
	C379.072784,44.978355 382.844696,44.978355 386.616608,44.978355 
	C386.786652,44.317852 386.956665,43.657349 387.126709,42.996845 
	C384.377014,38.757980 378.856018,42.640076 375.122650,40.538906 
	C375.122650,38.458134 375.122650,36.222057 375.122650,34.017845 
	C387.775635,32.450207 387.775635,32.450207 387.540131,29.405439 
	C381.715332,29.822226 375.873474,30.240238 369.972351,31.636292 
M412.517212,33.598721 
	C413.167206,32.533737 413.817230,31.468758 414.680023,30.055180 
	C406.847656,30.055180 400.125244,30.055180 393.111633,30.055180 
	C393.196014,31.147955 393.096558,32.564514 393.342377,32.627205 
	C395.923187,33.285358 398.559174,33.726963 401.392700,34.269146 
	C401.392700,40.046215 401.342163,45.670464 401.410858,51.293259 
	C401.454895,54.901943 401.533630,54.900982 406.238525,54.257839 
	C406.238525,47.483192 406.238525,40.629036 406.238525,33.606770 
	C408.394897,33.606770 410.047546,33.606770 412.517212,33.598721 
z"/>
<path fill="#211517" opacity="1.000000" stroke="none" 
	d="
M536.967590,164.956299 
	C530.308350,192.404099 521.649475,218.692673 508.463043,243.316681 
	C500.577057,258.042816 491.264862,271.731445 479.627533,283.844696 
	C457.863831,306.498474 431.074341,314.657013 400.345856,312.415955 
	C371.153656,310.286896 346.720978,297.324890 325.232849,278.653656 
	C298.471680,255.400635 272.453674,231.291763 246.146118,207.517746 
	C240.410873,202.334824 238.117722,202.373108 233.043823,208.359070 
	C214.984695,229.664383 195.229584,249.000565 171.576401,264.249512 
	C117.828217,298.900269 44.774723,277.724884 14.730821,221.105682 
	C8.717547,209.773376 7.908051,197.248566 6.929654,184.806076 
	C5.006833,160.353149 11.216473,138.074677 24.701857,117.649071 
	C37.943329,97.592903 56.901070,87.433235 80.375671,85.038513 
	C105.968353,82.427727 129.189392,88.612572 149.819321,104.182938 
	C157.364929,109.877968 165.033905,115.409561 173.230438,121.445671 
	C175.570297,110.583809 177.805420,100.240837 180.025543,89.894661 
	C183.617996,73.152885 187.257996,56.420856 190.725113,39.653118 
	C191.241318,37.156647 192.048645,36.098274 194.763931,35.777767 
	C205.130707,34.554081 215.456726,32.985260 226.828384,31.401867 
	C223.113632,49.277054 219.586792,66.247978 215.735168,84.781792 
	C220.979294,83.188034 225.657425,82.560425 229.522247,80.446114 
	C242.236588,73.490517 249.246689,62.336411 250.811676,48.029114 
	C252.160095,35.701523 244.918015,25.357960 232.838669,22.121241 
	C207.878296,15.432993 170.889206,28.557291 162.532516,62.518093 
	C159.911087,73.171333 160.266434,83.455070 163.694534,93.398796 
	C147.528000,94.452309 137.797699,86.590637 138.766647,70.458046 
	C139.575989,56.983025 145.510391,46.003414 154.984543,37.182560 
	C180.742355,13.200858 211.128433,4.159747 245.623566,12.148655 
	C262.897797,16.149282 273.966156,28.656309 274.918030,42.953785 
	C275.921021,58.019142 270.045532,70.170021 258.464294,79.674240 
	C256.815674,81.027184 255.101334,82.300026 253.281708,83.715500 
	C253.789719,84.256279 254.043152,84.781761 254.412552,84.882652 
	C273.898285,90.204445 280.107361,107.682327 279.430176,123.928543 
	C278.513824,145.912674 272.036163,165.716599 255.568481,181.386139 
	C251.060013,185.676086 250.965637,189.329636 255.113525,192.942368 
	C283.724213,217.861694 311.882782,243.347672 341.340179,267.228668 
	C357.922485,280.671906 377.330902,289.686829 399.222534,292.299286 
	C427.992432,295.732513 452.402527,287.685242 471.122131,265.320099 
	C491.562531,240.899094 505.563812,212.925140 514.329773,182.331665 
	C514.824158,180.606171 514.908752,178.763214 515.270813,176.411285 
	C512.674622,177.688095 510.673218,178.998337 508.477264,179.697220 
	C497.597900,183.159760 489.700958,176.496323 491.354645,165.230270 
	C492.005920,160.793060 493.078644,156.417206 493.975708,152.016724 
	C495.337250,145.337646 496.577332,138.628311 498.195038,132.011566 
	C498.525513,130.660004 500.215240,128.767883 501.417847,128.658539 
	C505.842377,128.256226 510.325531,128.498856 515.464905,128.498856 
	C513.436523,138.453140 511.519958,147.860138 509.602539,157.266968 
	C509.072052,159.869736 508.190216,162.465088 508.138519,165.077103 
	C508.107635,166.638962 508.988495,168.828247 510.189209,169.599487 
	C511.047821,170.151001 513.735168,169.280121 514.523621,168.230453 
	C516.370728,165.771439 518.194397,162.976868 518.910767,160.045273 
	C521.199402,150.680054 523.094849,141.212296 524.880127,131.734802 
	C525.369507,129.136703 526.140564,127.982399 528.959290,128.101440 
	C533.926147,128.311218 538.908325,128.160126 544.480591,128.160126 
	C541.956299,140.492172 539.494629,152.518280 536.967590,164.956299 
M208.433426,174.061111 
	C205.240982,171.281647 202.048538,168.502182 198.469009,165.385696 
	C196.795425,172.959991 195.299805,179.728882 193.789597,186.563797 
	C182.381073,186.563797 171.286591,186.563797 159.714188,186.563797 
	C160.027817,184.620605 160.221130,183.002289 160.556168,181.413864 
	C163.233398,168.721130 166.020309,156.050354 168.527573,143.324387 
	C168.837891,141.749435 168.276093,139.091034 167.151169,138.285568 
	C155.529663,129.964172 143.983978,121.480179 131.867935,113.921906 
	C119.381454,106.132538 105.710899,101.908997 90.601135,103.240807 
	C71.018394,104.966858 57.952606,116.533485 47.657825,131.729919 
	C27.100351,162.075409 29.687103,202.226852 53.635307,233.224350 
	C74.986397,260.860260 111.454247,271.691406 144.048309,259.157135 
	C176.923340,246.514771 200.010056,221.522675 221.682907,195.109741 
	C224.488235,191.690872 223.896988,187.613922 220.188019,184.455795 
	C216.385315,181.217834 212.686203,177.858231 208.433426,174.061111 
M204.120712,147.886124 
	C210.603119,153.617432 216.996002,159.454269 223.593887,165.049408 
	C229.797394,170.310074 236.669540,169.112457 240.715988,162.067108 
	C242.184647,159.509964 243.515823,156.630081 243.930130,153.756241 
	C245.256058,144.558594 247.356705,135.237778 246.932587,126.067444 
	C245.733963,100.150261 235.896210,93.010124 214.362076,96.071915 
	C214.049026,96.116432 213.756363,96.304474 213.028381,96.596130 
	C209.686234,112.434334 206.275482,128.510849 202.950012,144.604980 
	C202.777786,145.438522 203.334244,146.422623 204.120712,147.886124 
z"/>
<path fill="#231719" opacity="1.000000" stroke="none" 
	d="
M360.003296,88.824844 
	C363.115997,88.824844 365.751556,88.824844 368.788422,88.824844 
	C366.930725,102.478951 365.136475,115.666824 363.403564,128.403763 
	C367.797424,126.952789 372.174469,124.694328 376.752075,124.162674 
	C386.699341,123.007370 392.854675,129.865189 390.437164,139.605957 
	C389.377686,143.874771 386.588745,147.996994 383.687469,151.426376 
	C381.762512,153.701797 379.649353,155.047684 381.413910,158.324036 
	C383.138794,161.526810 385.617920,162.306076 388.923615,161.218369 
	C389.201263,161.126999 389.564636,161.296112 390.003021,161.361298 
	C390.003021,164.497177 390.084320,167.649628 389.949799,170.792847 
	C389.912994,171.652115 389.432648,172.696548 388.809265,173.294998 
	C382.540344,179.313477 370.216522,176.846146 366.922058,168.844391 
	C365.668732,165.800262 364.929565,162.544449 363.966980,159.420471 
	C359.743347,158.424271 357.816437,159.934357 357.580017,164.328796 
	C357.393921,167.787933 356.446411,171.206100 355.742645,175.175140 
	C353.184479,175.175140 350.559326,175.175140 347.934174,175.175140 
	C345.301056,175.175140 342.667969,175.175140 339.411682,175.175140 
	C343.731476,146.317184 347.978638,117.944344 352.337555,88.824852 
	C354.670013,88.824852 357.098083,88.824852 360.003296,88.824844 
M369.528168,141.444992 
	C362.500519,143.033417 361.139862,144.499191 359.938751,153.109177 
	C364.314270,151.474197 368.431030,150.710251 371.594269,148.550034 
	C375.221222,146.073196 374.422302,143.335907 369.528168,141.444992 
z"/>
<path fill="#231719" opacity="1.000000" stroke="none" 
	d="
M332.785248,135.931427 
	C331.473846,143.385254 330.126831,150.409271 328.996399,157.467972 
	C328.115173,162.970596 328.788269,163.479187 334.504883,162.361206 
	C335.927765,171.165802 335.130524,173.584290 330.158508,175.546249 
	C323.187531,178.296997 316.701813,176.322113 312.392365,170.042023 
	C307.624023,175.495712 301.825287,177.771805 294.543976,176.304810 
	C286.910522,174.766861 282.373016,169.712814 283.215942,161.872131 
	C283.923065,155.294617 285.075714,148.637253 287.091675,142.355591 
	C290.924530,130.412659 304.419952,125.380188 316.109100,130.040131 
	C319.575317,131.421951 324.189056,129.930511 328.276550,129.746201 
	C329.910400,129.672516 331.543121,129.573303 333.661987,129.459686 
	C333.352814,131.746017 333.097900,133.631287 332.785248,135.931427 
M308.673462,162.318466 
	C309.909485,160.760941 311.689636,159.379044 312.261536,157.607178 
	C313.268433,154.487656 313.571594,151.135513 314.106873,147.870514 
	C314.883118,143.135620 313.166534,141.567383 308.453430,142.441879 
	C301.430542,143.744904 301.555084,149.482864 300.684326,154.664703 
	C299.584595,161.208939 301.237732,163.050522 308.673462,162.318466 
z"/>
<path fill="#24181A" opacity="1.000000" stroke="none" 
	d="
M434.180725,129.548431 
	C444.795013,133.262802 446.988098,139.026352 443.690125,154.178909 
	C435.850159,154.178909 427.931030,154.061691 420.020325,154.267899 
	C418.221313,154.314789 415.281311,155.120209 414.942352,156.217712 
	C414.433228,157.865906 415.171661,161.063477 416.440765,161.818359 
	C418.248260,162.893509 422.314972,163.392578 423.164337,162.332733 
	C428.610535,155.537018 435.543762,160.615585 441.964233,158.712173 
	C440.470245,165.851715 437.192688,170.936325 431.260345,173.688248 
	C423.080963,177.482498 414.456879,177.645432 405.953461,174.872665 
	C400.427399,173.070740 396.557190,166.689148 397.317108,161.066376 
	C398.028809,155.800110 398.907501,150.522522 400.215149,145.377625 
	C403.053162,134.211563 413.265045,127.734848 426.372192,128.517715 
	C428.857361,128.666168 431.325226,129.103851 434.180725,129.548431 
M428.558899,144.318939 
	C426.471558,143.418640 424.054535,141.391632 422.374512,141.883255 
	C419.881409,142.612839 417.910248,145.126099 415.716919,146.880127 
	C416.037201,147.313553 416.357513,147.746964 416.677826,148.180389 
	C419.837494,148.180389 423.027130,148.422974 426.139282,148.038528 
	C427.124817,147.916779 427.903564,146.121048 428.558899,144.318939 
z"/>
<path fill="#24191B" opacity="1.000000" stroke="none" 
	d="
M474.086182,133.090485 
	C477.159210,131.531769 480.092041,129.506531 483.340179,128.530502 
	C487.555603,127.263809 490.976929,130.141617 491.690125,134.787369 
	C492.332306,138.970200 489.396301,143.141647 485.306488,143.230469 
	C483.801636,143.263153 482.092896,142.179123 480.794861,141.188248 
	C479.439667,140.153793 478.467133,138.618073 477.327332,137.301483 
	C475.183228,139.353500 471.802673,141.060165 471.115906,143.519196 
	C468.575195,152.615662 466.938995,161.963806 464.929016,171.209991 
	C464.334961,173.942841 463.629517,176.651474 463.020233,179.183762 
	C457.506378,179.183762 452.393951,179.183762 446.591003,179.183762 
	C450.221283,162.267883 453.751770,145.817078 457.338715,129.103149 
	C462.794830,129.103149 468.211304,129.103149 473.838562,129.103149 
	C473.639984,130.089050 473.479370,130.886398 473.209106,132.346222 
	C473.176208,133.272522 473.252991,133.536331 473.329803,133.800140 
	C473.581940,133.563614 473.834076,133.327057 474.086182,133.090485 
z"/>
<path fill="#2A1F20" opacity="1.000000" stroke="none" 
	d="
M444.078827,40.834347 
	C444.888885,43.249756 445.601288,45.286579 446.712524,48.463737 
	C448.673615,42.735889 450.458771,37.941002 451.932678,33.052273 
	C452.752502,30.333052 453.976776,29.031876 457.297760,30.297329 
	C454.836212,37.872471 452.461609,45.422241 449.852112,52.889935 
	C449.542419,53.776207 447.898499,54.792519 446.963379,54.711105 
	C445.827332,54.612198 444.197235,53.644547 443.805481,52.649380 
	C441.896912,47.801006 440.330444,42.817951 438.223602,36.656281 
	C435.848511,43.414577 433.887604,48.994225 431.961853,54.473873 
	C428.560303,55.512470 426.687134,54.823433 425.662506,51.105232 
	C423.734375,44.108273 421.200989,37.278095 418.809479,30.046604 
	C420.637543,30.046604 422.060760,30.046604 423.595764,30.046604 
	C425.545044,35.940144 427.454132,41.712021 429.690186,48.472546 
	C431.648529,42.781231 433.164215,37.895657 435.062836,33.163742 
	C435.603790,31.815525 437.257507,30.913801 438.400970,29.807339 
	C439.488129,30.985912 440.922150,31.998526 441.583435,33.380833 
	C442.650330,35.611099 443.208252,38.084858 444.078827,40.834347 
z"/>
<path fill="#2F2426" opacity="1.000000" stroke="none" 
	d="
M336.903717,35.141850 
	C344.799042,26.717499 357.582855,28.249952 360.926147,37.663914 
	C362.824158,43.008297 361.307648,48.647499 357.048431,52.083473 
	C352.422394,55.815353 345.231628,56.081337 340.235046,52.705387 
	C335.798187,49.707619 333.730164,43.989586 335.238556,38.613689 
	C335.546478,37.516399 336.213196,36.519798 336.903717,35.141850 
M340.152893,45.717194 
	C344.472595,52.300671 352.452606,52.816185 355.812897,46.672230 
	C357.758972,43.114082 357.486267,39.541027 354.849457,36.464260 
	C351.987152,33.124371 348.069458,32.733448 344.380798,34.424366 
	C340.024658,36.421284 338.876160,40.327728 340.152893,45.717194 
z"/>
<path fill="#322729" opacity="1.000000" stroke="none" 
	d="
M540.374756,54.879261 
	C534.785400,54.885174 529.633484,54.885174 524.129028,54.885174 
	C524.129028,46.618374 524.129028,38.548637 524.129028,30.125557 
	C529.766907,30.125557 535.674072,30.125557 541.805176,30.125557 
	C541.805176,31.057894 541.805176,32.153950 541.805176,33.596222 
	C537.499939,33.596222 533.378906,33.596222 528.930603,33.596222 
	C528.930603,35.822517 528.930603,37.708443 528.930603,39.519169 
	C532.410828,41.857544 538.159485,37.410496 541.533325,43.959763 
	C536.542969,43.959763 532.783569,43.959763 528.814453,43.959763 
	C528.814453,46.355114 528.814453,48.293648 528.814453,50.715466 
	C533.117126,50.715466 537.508362,50.715466 543.353882,50.715466 
	C542.126221,52.723770 541.469238,53.798561 540.374756,54.879261 
z"/>
<path fill="#2C2022" opacity="1.000000" stroke="none" 
	d="
M505.275330,47.821579 
	C503.063599,47.673523 501.256592,47.673523 499.220306,47.673523 
	C499.103638,49.941410 498.994415,52.064823 498.864166,54.596794 
	C497.446289,54.670044 496.078247,54.740719 494.412048,54.826797 
	C494.412048,46.420532 494.412048,38.363434 494.412048,29.966059 
	C498.858124,29.966059 503.301666,29.252872 507.348694,30.212212 
	C510.131348,30.871832 513.443848,33.361488 514.599487,35.905407 
	C516.530945,40.156994 514.731079,44.269627 510.177765,46.676285 
	C511.964630,49.384579 513.499695,51.711288 515.034790,54.037994 
	C514.763550,54.475384 514.492249,54.912773 514.220947,55.350163 
	C512.455627,54.357353 510.498962,53.590229 508.982025,52.304409 
	C507.628845,51.157379 506.761688,49.436996 505.275330,47.821579 
M509.707520,35.680515 
	C506.311951,34.720425 502.916351,33.760334 499.250977,32.723961 
	C499.250977,37.303051 499.250977,40.399769 499.250977,43.455166 
	C508.651398,44.456184 510.873383,42.951508 509.707520,35.680515 
z"/>
<path fill="#2D2224" opacity="1.000000" stroke="none" 
	d="
M475.790924,49.028744 
	C471.372162,49.086361 466.864716,47.840141 465.571075,53.797989 
	C465.418701,54.499786 462.829620,54.672508 460.303345,55.395996 
	C464.191498,46.663582 467.493927,38.946350 471.078766,31.362597 
	C472.292511,28.794821 475.939514,29.071547 477.217712,31.787384 
	C480.667847,39.117821 483.929169,46.537117 487.440704,54.309101 
	C484.443207,55.291191 482.325439,55.285378 481.557129,52.005436 
	C480.852295,48.996719 478.709229,48.768658 475.790924,49.028744 
M474.881439,36.437508 
	C474.378082,36.352688 473.487274,36.084949 473.428284,36.209923 
	C472.118256,38.984913 470.900055,41.803265 469.421967,45.164669 
	C471.577209,45.164669 472.894379,45.201199 474.208527,45.154148 
	C475.462738,45.109245 476.713837,44.977268 478.517609,44.842319 
	C477.272003,41.995796 476.220428,39.592686 474.881439,36.437508 
z"/>
<path fill="#2F2426" opacity="1.000000" stroke="none" 
	d="
M309.125641,38.521084 
	C308.647461,34.544102 310.060272,31.306076 313.434326,30.728632 
	C317.488159,30.034853 321.797394,30.711746 325.969574,31.088457 
	C326.267975,31.115400 326.349609,33.542934 326.521881,34.781151 
	C322.958160,34.211380 320.232880,33.429783 317.529602,33.499599 
	C316.306824,33.531181 315.127747,35.255180 313.928864,36.211372 
	C314.917145,37.357761 315.690186,38.964569 316.941040,39.549324 
	C319.159698,40.586521 322.026245,40.487331 323.954987,41.824986 
	C325.880310,43.160271 328.134979,45.673248 328.137390,47.672485 
	C328.139923,49.750065 325.870819,53.326420 324.150879,53.616844 
	C319.782349,54.354492 315.149078,53.779289 310.664886,53.314140 
	C309.955353,53.240540 309.469879,51.006363 308.514374,49.002762 
	C312.845825,49.919559 315.686401,50.984592 318.512878,50.948475 
	C320.262756,50.926113 321.991211,49.230305 323.729279,48.285690 
	C322.334503,47.127296 321.103790,45.609009 319.511810,44.883221 
	C315.864868,43.220592 311.104340,43.585060 309.125641,38.521084 
z"/>
<path fill="#2F2426" opacity="1.000000" stroke="none" 
	d="
M370.001953,31.147270 
	C375.873474,30.240238 381.715332,29.822226 387.540131,29.405439 
	C387.775635,32.450207 387.775635,32.450207 375.122650,34.017845 
	C375.122650,36.222057 375.122650,38.458134 375.122650,40.538906 
	C378.856018,42.640076 384.377014,38.757980 387.126709,42.996845 
	C386.956665,43.657349 386.786652,44.317852 386.616608,44.978355 
	C382.844696,44.978355 379.072784,44.978355 374.936005,44.978355 
	C374.936005,48.326977 374.936005,51.252666 374.936005,54.542744 
	C373.204895,54.658298 371.832214,54.749924 369.972351,54.874069 
	C369.972351,46.894608 369.972351,39.265450 370.001953,31.147270 
z"/>
<path fill="#362C2D" opacity="1.000000" stroke="none" 
	d="
M412.108704,33.602745 
	C410.047546,33.606770 408.394897,33.606770 406.238525,33.606770 
	C406.238525,40.629036 406.238525,47.483192 406.238525,54.257839 
	C401.533630,54.900982 401.454895,54.901943 401.410858,51.293259 
	C401.342163,45.670464 401.392700,40.046215 401.392700,34.269146 
	C398.559174,33.726963 395.923187,33.285358 393.342377,32.627205 
	C393.096558,32.564514 393.196014,31.147955 393.111633,30.055180 
	C400.125244,30.055180 406.847656,30.055180 414.680023,30.055180 
	C413.817230,31.468758 413.167206,32.533737 412.108704,33.602745 
z"/>
<path fill="#FEFEFE" opacity="1.000000" stroke="none" 
	d="
M208.687592,174.306488 
	C212.686203,177.858231 216.385315,181.217834 220.188019,184.455795 
	C223.896988,187.613922 224.488235,191.690872 221.682907,195.109741 
	C200.010056,221.522675 176.923340,246.514771 144.048309,259.157135 
	C111.454247,271.691406 74.986397,260.860260 53.635307,233.224350 
	C29.687103,202.226852 27.100351,162.075409 47.657825,131.729919 
	C57.952606,116.533485 71.018394,104.966858 90.601135,103.240807 
	C105.710899,101.908997 119.381454,106.132538 131.867935,113.921906 
	C143.983978,121.480179 155.529663,129.964172 167.151169,138.285568 
	C168.276093,139.091034 168.837891,141.749435 168.527573,143.324387 
	C166.020309,156.050354 163.233398,168.721130 160.556168,181.413864 
	C160.221130,183.002289 160.027817,184.620605 159.714188,186.563797 
	C171.286591,186.563797 182.381073,186.563797 193.789597,186.563797 
	C195.299805,179.728882 196.795425,172.959991 198.469009,165.385696 
	C202.048538,168.502182 205.240982,171.281647 208.687592,174.306488 
z"/>
<path fill="#FDFDFD" opacity="1.000000" stroke="none" 
	d="
M203.836075,147.611374 
	C203.334244,146.422623 202.777786,145.438522 202.950012,144.604980 
	C206.275482,128.510849 209.686234,112.434334 213.028381,96.596130 
	C213.756363,96.304474 214.049026,96.116432 214.362076,96.071915 
	C235.896210,93.010124 245.733963,100.150261 246.932587,126.067444 
	C247.356705,135.237778 245.256058,144.558594 243.930130,153.756241 
	C243.515823,156.630081 242.184647,159.509964 240.715988,162.067108 
	C236.669540,169.112457 229.797394,170.310074 223.593887,165.049408 
	C216.996002,159.454269 210.603119,153.617432 203.836075,147.611374 
z"/>
<path fill="#F2F1F1" opacity="1.000000" stroke="none" 
	d="
M369.898987,141.420746 
	C374.422302,143.335907 375.221222,146.073196 371.594269,148.550034 
	C368.431030,150.710251 364.314270,151.474197 359.938751,153.109177 
	C361.139862,144.499191 362.500519,143.033417 369.898987,141.420746 
z"/>
<path fill="#F6F6F6" opacity="1.000000" stroke="none" 
	d="
M308.308502,162.474075 
	C301.237732,163.050522 299.584595,161.208939 300.684326,154.664703 
	C301.555084,149.482864 301.430542,143.744904 308.453430,142.441879 
	C313.166534,141.567383 314.883118,143.135620 314.106873,147.870514 
	C313.571594,151.135513 313.268433,154.487656 312.261536,157.607178 
	C311.689636,159.379044 309.909485,160.760941 308.308502,162.474075 
z"/>
<path fill="#F5F4F4" opacity="1.000000" stroke="none" 
	d="
M428.667908,144.705170 
	C427.903564,146.121048 427.124817,147.916779 426.139282,148.038528 
	C423.027130,148.422974 419.837494,148.180389 416.677826,148.180389 
	C416.357513,147.746964 416.037201,147.313553 415.716919,146.880127 
	C417.910248,145.126099 419.881409,142.612839 422.374512,141.883255 
	C424.054535,141.391632 426.471558,143.418640 428.667908,144.705170 
z"/>
<path fill="#FEFEFE" opacity="1.000000" stroke="none" 
	d="
M473.908997,132.932266 
	C473.834076,133.327057 473.581940,133.563614 473.329803,133.800140 
	C473.252991,133.536331 473.176208,133.272522 473.218140,132.759277 
	C473.336853,132.509857 473.731781,132.774033 473.908997,132.932266 
z"/>
<path fill="#FBFBFB" opacity="1.000000" stroke="none" 
	d="
M340.056061,45.311401 
	C338.876160,40.327728 340.024658,36.421284 344.380798,34.424366 
	C348.069458,32.733448 351.987152,33.124371 354.849457,36.464260 
	C357.486267,39.541027 357.758972,43.114082 355.812897,46.672230 
	C352.452606,52.816185 344.472595,52.300671 340.056061,45.311401 
z"/>
<path fill="#EEEDED" opacity="1.000000" stroke="none" 
	d="
M509.880585,36.012337 
	C510.873383,42.951508 508.651398,44.456184 499.250977,43.455166 
	C499.250977,40.399769 499.250977,37.303051 499.250977,32.723961 
	C502.916351,33.760334 506.311951,34.720425 509.880585,36.012337 
z"/>
<path fill="#F2F1F1" opacity="1.000000" stroke="none" 
	d="
M475.025146,36.813541 
	C476.220428,39.592686 477.272003,41.995796 478.517609,44.842319 
	C476.713837,44.977268 475.462738,45.109245 474.208527,45.154148 
	C472.894379,45.201199 471.577209,45.164669 469.421967,45.164669 
	C470.900055,41.803265 472.118256,38.984913 473.428284,36.209923 
	C473.487274,36.084949 474.378082,36.352688 475.025146,36.813541 
z"/>
</svg>